Vishwaroopam 2013 Hindi Movies HD DvDRip New Source Sample Included ~ rDX

Screen Shots :
 
http://myimghost.no-ip.biz/VishwaroopamDS.html
 
http://myimghost.cwahi.net/VishwaroopamDS.html


Format                                   : Matroska
Format version                           : Version 1
File size                                : 686 MiB
Duration                                 : 2h 28mn
Overall bit rate                         : 647 Kbps

Video
ID                                       : 1
Format                                   : MPEG-4 Visual
Format profile                           : Advanced Simple@L5
Format settings, BVOP                    : Yes
Format settings, QPel                    : No
Format settings, GMC                     : No warppoints
Format settings, Matrix                  : Default (H.263)
Codec ID                                 : V_MS/VFW/FOURCC / XVID
Codec ID/Hint                            : XviD
Duration                                 : 2h 28mn
Bit rate                                 : 555 Kbps
Width                                    : 608 pixels
Height                                   : 240 pixels
Display aspect ratio                     : 2.533
Frame rate mode                          : Constant
Frame rate                               : 25.000 fps
Color space                              : YUV
Chroma subsampling                       : 4:2:0
Bit depth                                : 8 bits
Scan type                                : Progressive
Compression mode                         : Lossy
Bits/(Pixel*Frame)                       : 0.152
Stream size                              : 588 MiB (86%)
Title                                    : Vishwaroop 2013  DVDScr Hindi
Writing library                          : XviD 1.2.1 (UTC 2008-12-04)
Language                                 : Hindi
Default                                  : Yes
Forced                                   : No

Audio
ID                                       : 2
Format                                   : MPEG Audio
Format version                           : Version 1
Format profile                           : Layer 3
Mode                                     : Joint stereo
Mode extension                           : MS Stereo
Codec ID                                 : A_MPEG/L3
Codec ID/Hint                            : MP3
Duration                                 : 2h 28mn
Bit rate mode                            : Constant
Bit rate                                 : 80.0 Kbps
Channel(s)                               : 2 channels
Sampling rate                            : 32.0 KHz
Compression mode                         : Lossy
Stream size                              : 85.1 MiB (12%)
Title                                    : Vishwaroop 2013  DVDScr Hindi
Writing library                          : LAME3.99r
Encoding settings                        : -m j -V 4 -q 2 -lowpass 13.5 -b 80
Language                                 : Hindi
Default                                  : Yes
Forced                                   : No